<?xml version="1.0" encoding="UTF-8" standalone="no"?>
<!DOCTYPE svg PUBLIC "-//W3C//DTD SVG 1.1//EN" "http://www.w3.org/Graphics/SVG/1.1/DTD/svg11.dtd">
<svg width="100%" height="100%" viewBox="0 0 1324 508" version="1.1" xmlns="http://www.w3.org/2000/svg" xmlns:xlink="http://www.w3.org/1999/xlink" xml:space="preserve" xmlns:serif="http://www.serif.com/" style="fill-rule:evenodd;clip-rule:evenodd;stroke-linejoin:round;stroke-miterlimit:2;">
    <g transform="matrix(1.041667,0,0,1.041667,-324.808437,-309.512853)">
        <g transform="matrix(1,0,0,1,-135.936134,228.718312)">
            <g transform="matrix(288,0,0,288,446.888134,413.809688)">
                <path d="M0.437,-0.234L0.437,-0.712L0.298,-0.712L0.298,-0.24C0.298,-0.158 0.254,-0.118 0.186,-0.118C0.14,-0.118 0.118,-0.135 0.095,-0.158L0.003,-0.067C0.056,-0.014 0.109,0.006 0.186,0.006C0.318,0.006 0.437,-0.077 0.437,-0.234Z" style="fill-rule:nonzero;"/>
            </g>
            <g transform="matrix(288,0,0,288,594.056134,413.809688)">
                <path d="M0.585,-0.356C0.585,-0.479 0.586,-0.568 0.514,-0.64C0.464,-0.69 0.403,-0.718 0.322,-0.718C0.241,-0.718 0.179,-0.69 0.129,-0.64C0.057,-0.568 0.059,-0.479 0.059,-0.356C0.059,-0.233 0.057,-0.144 0.129,-0.072C0.179,-0.022 0.241,0.006 0.322,0.006C0.403,0.006 0.464,-0.022 0.514,-0.072C0.586,-0.144 0.585,-0.233 0.585,-0.356ZM0.446,-0.356C0.446,-0.219 0.438,-0.186 0.411,-0.156C0.391,-0.133 0.36,-0.118 0.322,-0.118C0.284,-0.118 0.252,-0.133 0.232,-0.156C0.205,-0.186 0.198,-0.219 0.198,-0.356C0.198,-0.493 0.205,-0.526 0.232,-0.556C0.252,-0.579 0.284,-0.594 0.322,-0.594C0.36,-0.594 0.391,-0.579 0.411,-0.556C0.438,-0.526 0.446,-0.493 0.446,-0.356Z" style="fill-rule:nonzero;"/>
            </g>
            <g transform="matrix(288,0,0,288,779.528134,413.809688)">
                <path d="M0.602,-0L0.602,-0.712L0.463,-0.712L0.463,-0.421L0.222,-0.421L0.222,-0.712L0.083,-0.712L0.083,-0L0.222,-0L0.222,-0.298L0.463,-0.298L0.463,-0L0.602,-0Z" style="fill-rule:nonzero;"/>
            </g>
            <g transform="matrix(288,0,0,288,976.808134,413.809688)">
                <path d="M0.628,-0L0.628,-0.712L0.489,-0.712L0.489,-0.276L0.207,-0.712L0.083,-0.712L0.083,-0L0.222,-0L0.222,-0.437L0.504,-0L0.628,-0Z" style="fill-rule:nonzero;"/>
            </g>
            <g transform="matrix(288,0,0,288,1181.576134,413.809688)">
                <path d="M0.543,-0.21C0.543,-0.273 0.526,-0.325 0.488,-0.361C0.458,-0.389 0.417,-0.407 0.352,-0.416L0.268,-0.428C0.239,-0.432 0.216,-0.443 0.202,-0.456C0.187,-0.47 0.181,-0.489 0.181,-0.507C0.181,-0.556 0.217,-0.597 0.291,-0.597C0.338,-0.597 0.392,-0.591 0.437,-0.548L0.525,-0.635C0.464,-0.694 0.393,-0.718 0.295,-0.718C0.141,-0.718 0.047,-0.629 0.047,-0.502C0.047,-0.442 0.064,-0.396 0.098,-0.362C0.13,-0.331 0.175,-0.312 0.236,-0.303L0.322,-0.291C0.355,-0.286 0.371,-0.279 0.385,-0.266C0.4,-0.252 0.407,-0.231 0.407,-0.206C0.407,-0.149 0.363,-0.118 0.281,-0.118C0.215,-0.118 0.154,-0.133 0.109,-0.178L0.019,-0.088C0.089,-0.017 0.171,0.006 0.279,0.006C0.428,0.006 0.543,-0.072 0.543,-0.21Z" style="fill-rule:nonzero;"/>
            </g>
            <g transform="matrix(288,0,0,288,1351.784134,413.809688)">
                <path d="M0.585,-0.356C0.585,-0.479 0.586,-0.568 0.514,-0.64C0.464,-0.69 0.403,-0.718 0.322,-0.718C0.241,-0.718 0.179,-0.69 0.129,-0.64C0.057,-0.568 0.059,-0.479 0.059,-0.356C0.059,-0.233 0.057,-0.144 0.129,-0.072C0.179,-0.022 0.241,0.006 0.322,0.006C0.403,0.006 0.464,-0.022 0.514,-0.072C0.586,-0.144 0.585,-0.233 0.585,-0.356ZM0.446,-0.356C0.446,-0.219 0.438,-0.186 0.411,-0.156C0.391,-0.133 0.36,-0.118 0.322,-0.118C0.284,-0.118 0.252,-0.133 0.232,-0.156C0.205,-0.186 0.198,-0.219 0.198,-0.356C0.198,-0.493 0.205,-0.526 0.232,-0.556C0.252,-0.579 0.284,-0.594 0.322,-0.594C0.36,-0.594 0.391,-0.579 0.411,-0.556C0.438,-0.526 0.446,-0.493 0.446,-0.356Z" style="fill-rule:nonzero;"/>
            </g>
            <g transform="matrix(288,0,0,288,1537.256134,413.809688)">
                <path d="M0.628,-0L0.628,-0.712L0.489,-0.712L0.489,-0.276L0.207,-0.712L0.083,-0.712L0.083,-0L0.222,-0L0.222,-0.437L0.504,-0L0.628,-0Z" style="fill-rule:nonzero;"/>
            </g>
        </g>
        <g transform="matrix(1,0,0,1,545.659146,124)">
            <g transform="matrix(96,0,0,96,686.028854,659.484244)">
                <path d="M0.583,-0.219L0.442,-0.219C0.428,-0.162 0.392,-0.118 0.322,-0.118C0.284,-0.118 0.253,-0.132 0.233,-0.155C0.206,-0.185 0.198,-0.219 0.198,-0.356C0.198,-0.493 0.206,-0.527 0.233,-0.557C0.253,-0.58 0.284,-0.594 0.322,-0.594C0.392,-0.594 0.428,-0.55 0.442,-0.493L0.583,-0.493C0.558,-0.642 0.454,-0.718 0.321,-0.718C0.243,-0.718 0.179,-0.69 0.129,-0.64C0.057,-0.568 0.059,-0.479 0.059,-0.356C0.059,-0.233 0.057,-0.144 0.129,-0.072C0.179,-0.022 0.243,0.006 0.321,0.006C0.453,0.006 0.558,-0.07 0.583,-0.219Z" style="fill-rule:nonzero;"/>
            </g>
            <g transform="matrix(96,0,0,96,745.548854,659.484244)">
                <path d="M0.585,-0.356C0.585,-0.479 0.586,-0.568 0.514,-0.64C0.464,-0.69 0.403,-0.718 0.322,-0.718C0.241,-0.718 0.179,-0.69 0.129,-0.64C0.057,-0.568 0.059,-0.479 0.059,-0.356C0.059,-0.233 0.057,-0.144 0.129,-0.072C0.179,-0.022 0.241,0.006 0.322,0.006C0.403,0.006 0.464,-0.022 0.514,-0.072C0.586,-0.144 0.585,-0.233 0.585,-0.356ZM0.446,-0.356C0.446,-0.219 0.438,-0.186 0.411,-0.156C0.391,-0.133 0.36,-0.118 0.322,-0.118C0.284,-0.118 0.252,-0.133 0.232,-0.156C0.205,-0.186 0.198,-0.219 0.198,-0.356C0.198,-0.493 0.205,-0.526 0.232,-0.556C0.252,-0.579 0.284,-0.594 0.322,-0.594C0.36,-0.594 0.391,-0.579 0.411,-0.556C0.438,-0.526 0.446,-0.493 0.446,-0.356Z" style="fill-rule:nonzero;"/>
            </g>
            <g transform="matrix(96,0,0,96,807.372854,659.484244)">
                <path d="M0.545,-0L0.545,-0.124L0.222,-0.124L0.222,-0.712L0.083,-0.712L0.083,-0L0.545,-0Z" style="fill-rule:nonzero;"/>
            </g>
            <g transform="matrix(96,0,0,96,862.572854,659.484244)">
                <path d="M0.545,-0L0.545,-0.124L0.222,-0.124L0.222,-0.712L0.083,-0.712L0.083,-0L0.545,-0Z" style="fill-rule:nonzero;"/>
            </g>
            <g transform="matrix(96,0,0,96,917.772854,659.484244)">
                <path d="M0.633,-0L0.373,-0.712L0.264,-0.712L0.005,-0L0.15,-0L0.193,-0.126L0.446,-0.126L0.488,-0L0.633,-0ZM0.409,-0.243L0.232,-0.243L0.322,-0.502L0.409,-0.243Z" style="fill-rule:nonzero;"/>
            </g>
            <g transform="matrix(96,0,0,96,979.020854,659.484244)">
                <path d="M0.599,-0.205C0.599,-0.3 0.544,-0.345 0.501,-0.365C0.537,-0.382 0.589,-0.433 0.589,-0.512C0.589,-0.634 0.508,-0.712 0.369,-0.712L0.083,-0.712L0.083,-0L0.381,-0C0.508,-0 0.599,-0.072 0.599,-0.205ZM0.45,-0.506C0.45,-0.457 0.417,-0.424 0.358,-0.424L0.222,-0.424L0.222,-0.588L0.358,-0.588C0.417,-0.588 0.45,-0.555 0.45,-0.506ZM0.46,-0.212C0.46,-0.164 0.43,-0.124 0.367,-0.124L0.222,-0.124L0.222,-0.299L0.367,-0.299C0.43,-0.299 0.46,-0.26 0.46,-0.212Z" style="fill-rule:nonzero;"/>
            </g>
        </g>
        <g transform="matrix(1,0,0,1,-377.092854,-294)">
            <g transform="matrix(96,0,0,96,686.028854,659.484244)">
                <path d="M0.541,-0.588L0.541,-0.712L0.03,-0.712L0.03,-0.588L0.216,-0.588L0.216,-0L0.355,-0L0.355,-0.588L0.541,-0.588Z" style="fill-rule:nonzero;"/>
            </g>
            <g transform="matrix(96,0,0,96,740.844854,659.484244)">
                <path d="M0.602,-0L0.602,-0.712L0.463,-0.712L0.463,-0.421L0.222,-0.421L0.222,-0.712L0.083,-0.712L0.083,-0L0.222,-0L0.222,-0.298L0.463,-0.298L0.463,-0L0.602,-0Z" style="fill-rule:nonzero;"/>
            </g>
            <g transform="matrix(96,0,0,96,806.604854,659.484244)">
                <path d="M0.552,-0L0.552,-0.124L0.222,-0.124L0.222,-0.297L0.503,-0.297L0.503,-0.421L0.222,-0.421L0.222,-0.588L0.552,-0.588L0.552,-0.712L0.083,-0.712L0.083,-0L0.552,-0Z" style="fill-rule:nonzero;"/>
            </g>
        </g>
    </g>
</svg>
